<svg xmlns="http://www.w3.org/2000/svg" xmlns:xlink="http://www.w3.org/1999/xlink" width="279" zoomAndPan="magnify" viewBox="0 0 209.25 268.500001" height="358" preserveAspectRatio="xMidYMid meet" version="1.2"><defs><clipPath id="0022bc4bac"><path d="M 0 0.230469 L 207.945312 0.230469 L 207.945312 208.175781 L 0 208.175781 Z M 0 0.230469 "/></clipPath><clipPath id="2a42ca0944"><path d="M 103.972656 0.230469 C 46.550781 0.230469 0 46.78125 0 104.203125 C 0 161.625 46.550781 208.175781 103.972656 208.175781 C 161.394531 208.175781 207.945312 161.625 207.945312 104.203125 C 207.945312 46.78125 161.394531 0.230469 103.972656 0.230469 Z M 103.972656 0.230469 "/></clipPath><clipPath id="db2f6a4b9b"><path d="M 7.4375 7.667969 L 200.507812 7.667969 L 200.507812 200.738281 L 7.4375 200.738281 Z M 7.4375 7.667969 "/></clipPath><clipPath id="d2e30f1b32"><path d="M 103.972656 7.667969 C 50.660156 7.667969 7.4375 50.890625 7.4375 104.203125 C 7.4375 157.515625 50.660156 200.738281 103.972656 200.738281 C 157.285156 200.738281 200.507812 157.515625 200.507812 104.203125 C 200.507812 50.890625 157.285156 7.667969 103.972656 7.667969 Z M 103.972656 7.667969 "/></clipPath><clipPath id="fd6f28e10b"><path d="M 67.613281 15.175781 L 101.625 15.175781 L 101.625 90.636719 L 67.613281 90.636719 Z M 67.613281 15.175781 "/></clipPath><clipPath id="fbc64d34e3"><path d="M 84.617188 15.175781 L 67.613281 38.671875 L 79.359375 38.671875 L 79.359375 90.613281 L 89.878906 90.613281 L 89.878906 38.671875 L 101.625 38.671875 Z M 84.617188 15.175781 "/></clipPath><clipPath id="4c6fc30365"><path d="M 106.320312 15.175781 L 140.332031 15.175781 L 140.332031 90.636719 L 106.320312 90.636719 Z M 106.320312 15.175781 "/></clipPath><clipPath id="4e5da6c60c"><path d="M 123.328125 15.175781 L 106.320312 38.671875 L 118.066406 38.671875 L 118.066406 90.613281 L 128.585938 90.613281 L 128.585938 38.671875 L 140.332031 38.671875 Z M 123.328125 15.175781 "/></clipPath><clipPath id="1c680022f0"><path d="M 25.441406 82.152344 L 162 82.152344 L 162 200.976562 L 25.441406 200.976562 Z M 25.441406 82.152344 "/></clipPath><clipPath id="466f941566"><path d="M 72 92 L 182.378906 92 L 182.378906 158 L 72 158 Z M 72 92 "/></clipPath></defs><g id="2b4c426793"><g clip-rule="nonzero" clip-path="url(#0022bc4bac)"><g clip-rule="nonzero" clip-path="url(#2a42ca0944)"><path style=" stroke:none;fill-rule:nonzero;fill:#1b4965;fill-opacity:1;" d="M 0 0.230469 L 207.945312 0.230469 L 207.945312 208.175781 L 0 208.175781 Z M 0 0.230469 "/></g></g><g clip-rule="nonzero" clip-path="url(#db2f6a4b9b)"><g clip-rule="nonzero" clip-path="url(#d2e30f1b32)"><path style=" stroke:none;fill-rule:nonzero;fill:#ffffff;fill-opacity:1;" d="M 7.4375 7.667969 L 200.507812 7.667969 L 200.507812 200.738281 L 7.4375 200.738281 Z M 7.4375 7.667969 "/></g></g><g clip-rule="nonzero" clip-path="url(#fd6f28e10b)"><g clip-rule="nonzero" clip-path="url(#fbc64d34e3)"><path style=" stroke:none;fill-rule:nonzero;fill:#1b4965;fill-opacity:1;" d="M 67.613281 15.175781 L 101.625 15.175781 L 101.625 90.636719 L 67.613281 90.636719 Z M 67.613281 15.175781 "/></g></g><g clip-rule="nonzero" clip-path="url(#4c6fc30365)"><g clip-rule="nonzero" clip-path="url(#4e5da6c60c)"><path style=" stroke:none;fill-rule:nonzero;fill:#1b4965;fill-opacity:1;" d="M 106.320312 15.175781 L 140.332031 15.175781 L 140.332031 90.636719 L 106.320312 90.636719 Z M 106.320312 15.175781 "/></g></g><path style=" stroke:none;fill-rule:nonzero;fill:#1b4965;fill-opacity:1;" d="M 63.308594 163.730469 C 62.960938 162.035156 61.976562 160.582031 60.535156 159.628906 C 59.472656 158.925781 58.242188 158.554688 56.972656 158.554688 C 54.789062 158.554688 52.773438 159.636719 51.570312 161.460938 L 48.609375 165.941406 C 46.640625 168.914062 47.464844 172.9375 50.445312 174.90625 C 51.503906 175.609375 52.734375 175.980469 54.003906 175.980469 C 56.1875 175.980469 58.207031 174.894531 59.40625 173.074219 L 62.371094 168.589844 C 63.316406 167.148438 63.65625 165.425781 63.308594 163.730469 Z M 63.308594 163.730469 "/><path style=" stroke:none;fill-rule:nonzero;fill:#1b4965;fill-opacity:1;" d="M 78.050781 169.363281 C 77.703125 167.671875 76.71875 166.21875 75.28125 165.265625 C 74.214844 164.5625 72.988281 164.191406 71.71875 164.191406 C 69.535156 164.191406 67.515625 165.277344 66.316406 167.09375 L 61.019531 175.421875 C 60.0625 176.871094 59.726562 178.597656 60.074219 180.289062 C 60.421875 181.984375 61.40625 183.441406 62.847656 184.390625 C 63.910156 185.09375 65.140625 185.464844 66.40625 185.464844 C 68.589844 185.464844 70.613281 184.378906 71.8125 182.5625 L 77.109375 174.234375 C 78.0625 172.785156 78.398438 171.058594 78.050781 169.363281 Z M 78.050781 169.363281 "/><path style=" stroke:none;fill-rule:nonzero;fill:#1b4965;fill-opacity:1;" d="M 91.640625 177.003906 C 91.292969 175.308594 90.308594 173.851562 88.871094 172.898438 C 87.804688 172.199219 86.574219 171.828125 85.308594 171.828125 C 83.125 171.828125 81.105469 172.914062 79.90625 174.730469 L 74.605469 183.058594 C 72.636719 186.039062 73.460938 190.058594 76.4375 192.027344 C 77.5 192.730469 78.730469 193.097656 79.996094 193.097656 C 82.179688 193.097656 84.203125 192.015625 85.402344 190.195312 L 90.695312 181.871094 C 91.652344 180.421875 91.988281 178.695312 91.640625 177.003906 Z M 91.640625 177.003906 "/><path style=" stroke:none;fill-rule:nonzero;fill:#1b4965;fill-opacity:1;" d="M 103.746094 186.878906 C 103.398438 185.183594 102.414062 183.726562 100.972656 182.777344 C 99.910156 182.074219 98.675781 181.703125 97.414062 181.703125 C 95.230469 181.703125 93.210938 182.789062 92.007812 184.609375 L 88.953125 189.382812 C 86.984375 192.363281 87.808594 196.386719 90.785156 198.355469 C 91.847656 199.054688 93.078125 199.429688 94.34375 199.429688 C 96.53125 199.429688 98.546875 198.339844 99.75 196.523438 L 102.800781 191.746094 C 103.757812 190.300781 104.09375 188.570312 103.746094 186.878906 Z M 103.746094 186.878906 "/><g clip-rule="nonzero" clip-path="url(#1c680022f0)"><path style=" stroke:none;fill-rule:nonzero;fill:#1b4965;fill-opacity:1;" d="M 158.777344 159.394531 L 101.503906 120.324219 L 91.828125 122.492188 L 85.375 132.390625 C 83.898438 134.625 81.421875 135.957031 78.746094 135.957031 C 77.195312 135.957031 75.683594 135.503906 74.382812 134.640625 C 72.613281 133.476562 71.410156 131.6875 70.984375 129.613281 C 70.558594 127.535156 70.96875 125.417969 72.136719 123.652344 L 79.445312 112.203125 C 81.535156 108.476562 84.085938 105.347656 87.03125 102.902344 L 67.1875 105.136719 L 25.71875 82.230469 L 25.71875 144.074219 L 51.097656 158.847656 C 52.695312 157.324219 54.765625 156.488281 56.972656 156.488281 C 58.648438 156.488281 60.273438 156.976562 61.671875 157.902344 C 63.578125 159.160156 64.878906 161.082031 65.332031 163.316406 C 65.433594 163.808594 65.488281 164.308594 65.5 164.8125 C 67.101562 163.109375 69.34375 162.125 71.71875 162.125 C 73.390625 162.125 75.019531 162.613281 76.417969 163.539062 C 78.324219 164.796875 79.625 166.71875 80.078125 168.953125 C 80.25 169.785156 80.292969 170.621094 80.214844 171.457031 C 81.675781 170.359375 83.449219 169.761719 85.308594 169.761719 C 86.980469 169.761719 88.609375 170.25 90.007812 171.175781 C 91.910156 172.429688 93.207031 174.351562 93.664062 176.589844 C 93.9375 177.921875 93.890625 179.273438 93.53125 180.5625 C 96.1875 179.207031 99.566406 179.371094 102.109375 181.054688 C 104.015625 182.308594 105.316406 184.230469 105.773438 186.464844 C 106.226562 188.699219 105.789062 190.972656 104.539062 192.863281 L 104.507812 192.914062 L 104.832031 193.121094 L 113.980469 199.421875 C 115.132812 200.296875 116.480469 200.753906 117.902344 200.753906 C 119.949219 200.753906 121.828125 199.816406 123.0625 198.195312 C 125.21875 195.351562 124.660156 191.285156 121.824219 189.128906 L 111.40625 181.953125 L 112.5 180.148438 L 127.339844 190.367188 C 128.488281 191.238281 129.839844 191.695312 131.261719 191.695312 C 133.304688 191.695312 135.1875 190.761719 136.417969 189.136719 C 138.578125 186.296875 138.019531 182.226562 135.179688 180.070312 L 119.238281 169.09375 L 120.429688 167.136719 L 138.664062 179.6875 C 139.8125 180.558594 141.164062 181.015625 142.585938 181.015625 C 144.628906 181.015625 146.507812 180.082031 147.742188 178.460938 C 149.898438 175.617188 149.34375 171.550781 146.503906 169.394531 L 127.164062 156.078125 L 128.363281 154.109375 L 150.765625 169.535156 C 151.914062 170.40625 153.265625 170.863281 154.6875 170.863281 C 154.6875 170.863281 154.6875 170.863281 154.691406 170.863281 C 156.734375 170.863281 158.613281 169.933594 159.84375 168.308594 C 161.953125 165.519531 161.488281 161.605469 158.777344 159.394531 Z M 158.777344 159.394531 "/></g><g clip-rule="nonzero" clip-path="url(#466f941566)"><path style=" stroke:none;fill-rule:nonzero;fill:#1b4965;fill-opacity:1;" d="M 73.011719 129.199219 C 73.324219 130.730469 74.214844 132.050781 75.523438 132.914062 C 76.488281 133.550781 77.601562 133.886719 78.75 133.886719 C 80.726562 133.886719 82.554688 132.902344 83.648438 131.253906 L 90.558594 120.660156 L 101.925781 118.113281 L 102.300781 118.363281 L 159.972656 157.707031 L 182.148438 143.34375 L 182.148438 92.539062 L 148.867188 103.695312 L 148.617188 103.667969 L 109.628906 99.121094 C 109.375 99.0625 107.523438 98.636719 104.761719 98.636719 C 99.03125 98.636719 88.359375 100.535156 81.222656 113.265625 L 73.875 124.777344 C 73 126.09375 72.695312 127.664062 73.011719 129.199219 Z M 73.011719 129.199219 "/></g><g style="fill:#1b4965;fill-opacity:1;"><g transform="translate(22.876614, 249.512324)"><path style="stroke:none" d="M 21.0625 -14.125 L 16.421875 -14.125 C 16.242188 -15.320312 15.734375 -16.257812 14.890625 -16.9375 C 14.046875 -17.625 12.992188 -17.96875 11.734375 -17.96875 C 10.054688 -17.96875 8.707031 -17.347656 7.6875 -16.109375 C 6.675781 -14.878906 6.171875 -13.132812 6.171875 -10.875 C 6.171875 -8.550781 6.679688 -6.785156 7.703125 -5.578125 C 8.722656 -4.367188 10.054688 -3.765625 11.703125 -3.765625 C 12.929688 -3.765625 13.96875 -4.082031 14.8125 -4.71875 C 15.664062 -5.363281 16.203125 -6.269531 16.421875 -7.4375 L 21.0625 -7.40625 C 20.90625 -6.070312 20.429688 -4.816406 19.640625 -3.640625 C 18.859375 -2.472656 17.789062 -1.523438 16.4375 -0.796875 C 15.09375 -0.0664062 13.492188 0.296875 11.640625 0.296875 C 9.691406 0.296875 7.957031 -0.140625 6.4375 -1.015625 C 4.914062 -1.890625 3.710938 -3.160156 2.828125 -4.828125 C 1.941406 -6.492188 1.5 -8.507812 1.5 -10.875 C 1.5 -13.238281 1.945312 -15.253906 2.84375 -16.921875 C 3.738281 -18.585938 4.945312 -19.851562 6.46875 -20.71875 C 8 -21.59375 9.722656 -22.03125 11.640625 -22.03125 C 13.316406 -22.03125 14.828125 -21.71875 16.171875 -21.09375 C 17.515625 -20.476562 18.613281 -19.582031 19.46875 -18.40625 C 20.332031 -17.226562 20.863281 -15.800781 21.0625 -14.125 Z M 21.0625 -14.125 "/></g></g><g style="fill:#1b4965;fill-opacity:1;"><g transform="translate(45.351196, 249.512324)"><path style="stroke:none" d="M 21.859375 -10.875 C 21.859375 -8.5 21.410156 -6.476562 20.515625 -4.8125 C 19.628906 -3.15625 18.414062 -1.890625 16.875 -1.015625 C 15.34375 -0.140625 13.613281 0.296875 11.6875 0.296875 C 9.75 0.296875 8.015625 -0.140625 6.484375 -1.015625 C 4.953125 -1.890625 3.738281 -3.160156 2.84375 -4.828125 C 1.945312 -6.492188 1.5 -8.507812 1.5 -10.875 C 1.5 -13.238281 1.945312 -15.253906 2.84375 -16.921875 C 3.738281 -18.585938 4.953125 -19.851562 6.484375 -20.71875 C 8.015625 -21.59375 9.75 -22.03125 11.6875 -22.03125 C 13.613281 -22.03125 15.34375 -21.59375 16.875 -20.71875 C 18.414062 -19.851562 19.628906 -18.585938 20.515625 -16.921875 C 21.410156 -15.253906 21.859375 -13.238281 21.859375 -10.875 Z M 17.203125 -10.875 C 17.203125 -13.175781 16.695312 -14.929688 15.6875 -16.140625 C 14.6875 -17.359375 13.351562 -17.96875 11.6875 -17.96875 C 10.019531 -17.96875 8.679688 -17.359375 7.671875 -16.140625 C 6.671875 -14.929688 6.171875 -13.175781 6.171875 -10.875 C 6.171875 -8.570312 6.671875 -6.8125 7.671875 -5.59375 C 8.679688 -4.375 10.019531 -3.765625 11.6875 -3.765625 C 13.351562 -3.765625 14.6875 -4.375 15.6875 -5.59375 C 16.695312 -6.8125 17.203125 -8.570312 17.203125 -10.875 Z M 17.203125 -10.875 "/></g></g><g style="fill:#1b4965;fill-opacity:1;"><g transform="translate(67.878724, 249.512324)"><path style="stroke:none" d="M 5.8125 -21.734375 L 11.078125 -5.21875 L 11.265625 -5.21875 L 16.53125 -21.734375 L 21.625 -21.734375 L 14.140625 0 L 8.21875 0 L 0.71875 -21.734375 Z M 5.8125 -21.734375 "/></g></g><g style="fill:#1b4965;fill-opacity:1;"><g transform="translate(90.225978, 249.512324)"><path style="stroke:none" d="M 6.484375 -21.734375 L 6.484375 0 L 1.890625 0 L 1.890625 -21.734375 Z M 6.484375 -21.734375 "/></g></g><g style="fill:#1b4965;fill-opacity:1;"><g transform="translate(98.60885, 249.512324)"><path style="stroke:none" d="M 1.890625 -21.734375 L 7.5625 -21.734375 L 13.546875 -7.140625 L 13.796875 -7.140625 L 19.78125 -21.734375 L 25.453125 -21.734375 L 25.453125 0 L 21 0 L 21 -14.15625 L 20.8125 -14.15625 L 15.1875 -0.109375 L 12.15625 -0.109375 L 6.53125 -14.203125 L 6.34375 -14.203125 L 6.34375 0 L 1.890625 0 Z M 1.890625 -21.734375 "/></g></g><g style="fill:#1b4965;fill-opacity:1;"><g transform="translate(126.219272, 249.512324)"><path style="stroke:none" d="M 1.0625 -17.953125 L 1.0625 -21.734375 L 18.921875 -21.734375 L 18.921875 -17.953125 L 12.265625 -17.953125 L 12.265625 0 L 7.71875 0 L 7.71875 -17.953125 Z M 1.0625 -17.953125 "/></g></g><g style="fill:#1b4965;fill-opacity:1;"><g transform="translate(146.189604, 249.512324)"><path style="stroke:none" d=""/></g></g><g style="fill:#1b4965;fill-opacity:1;"><g transform="translate(153.118736, 249.512324)"><path style="stroke:none" d="M 10.765625 -21.734375 L 10.765625 0 L 6.171875 0 L 6.171875 -16.109375 L 5.96875 -16.109375 C 5.738281 -15.753906 5.242188 -15.394531 4.484375 -15.03125 C 3.734375 -14.675781 2.753906 -14.5 1.546875 -14.5 L 1.546875 -18.15625 C 2.484375 -18.15625 3.300781 -18.359375 4 -18.765625 C 4.695312 -19.179688 5.242188 -19.671875 5.640625 -20.234375 C 6.035156 -20.796875 6.242188 -21.296875 6.265625 -21.734375 Z M 10.765625 -21.734375 "/></g></g><g style="fill:#1b4965;fill-opacity:1;"><g transform="translate(167.284728, 249.512324)"><path style="stroke:none" d="M 2.625 0 L 11.640625 -17.828125 L 11.640625 -17.984375 L 1.140625 -17.984375 L 1.140625 -21.734375 L 16.390625 -21.734375 L 16.390625 -17.921875 L 7.359375 0 Z M 2.625 0 "/></g></g></g></svg>