<svg xmlns="http://www.w3.org/2000/svg" xmlns:xlink="http://www.w3.org/1999/xlink" width="279" zoomAndPan="magnify" viewBox="0 0 209.25 209.249995" height="279" preserveAspectRatio="xMidYMid meet" version="1.2"><defs><clipPath id="209906d92d"><path d="M 0 0 L 207.945312 0 L 207.945312 207.945312 L 0 207.945312 Z M 0 0 "/></clipPath><clipPath id="45f3a36db2"><path d="M 103.972656 0 C 46.550781 0 0 46.550781 0 103.972656 C 0 161.394531 46.550781 207.945312 103.972656 207.945312 C 161.394531 207.945312 207.945312 161.394531 207.945312 103.972656 C 207.945312 46.550781 161.394531 0 103.972656 0 Z M 103.972656 0 "/></clipPath><clipPath id="4b661107bc"><path d="M 7.4375 7.4375 L 200.507812 7.4375 L 200.507812 200.507812 L 7.4375 200.507812 Z M 7.4375 7.4375 "/></clipPath><clipPath id="92a34b3ffc"><path d="M 103.972656 7.4375 C 50.660156 7.4375 7.4375 50.660156 7.4375 103.972656 C 7.4375 157.285156 50.660156 200.507812 103.972656 200.507812 C 157.285156 200.507812 200.507812 157.285156 200.507812 103.972656 C 200.507812 50.660156 157.285156 7.4375 103.972656 7.4375 Z M 103.972656 7.4375 "/></clipPath><clipPath id="ccc09e7d51"><path d="M 67.613281 14.945312 L 101.625 14.945312 L 101.625 90.410156 L 67.613281 90.410156 Z M 67.613281 14.945312 "/></clipPath><clipPath id="cf752a131f"><path d="M 84.617188 14.945312 L 67.613281 38.441406 L 79.359375 38.441406 L 79.359375 90.382812 L 89.878906 90.382812 L 89.878906 38.441406 L 101.625 38.441406 Z M 84.617188 14.945312 "/></clipPath><clipPath id="524ab4f086"><path d="M 106.320312 14.945312 L 140.332031 14.945312 L 140.332031 90.410156 L 106.320312 90.410156 Z M 106.320312 14.945312 "/></clipPath><clipPath id="077f3eaca2"><path d="M 123.328125 14.945312 L 106.320312 38.441406 L 118.066406 38.441406 L 118.066406 90.382812 L 128.585938 90.382812 L 128.585938 38.441406 L 140.332031 38.441406 Z M 123.328125 14.945312 "/></clipPath><clipPath id="3c66223272"><path d="M 25.441406 82 L 162 82 L 162 200.746094 L 25.441406 200.746094 Z M 25.441406 82 "/></clipPath><clipPath id="179cca176e"><path d="M 72 92 L 182.378906 92 L 182.378906 158 L 72 158 Z M 72 92 "/></clipPath></defs><g id="e94a391b8b"><g clip-rule="nonzero" clip-path="url(#209906d92d)"><g clip-rule="nonzero" clip-path="url(#45f3a36db2)"><path style=" stroke:none;fill-rule:nonzero;fill:#1b4965;fill-opacity:1;" d="M 0 0 L 207.945312 0 L 207.945312 207.945312 L 0 207.945312 Z M 0 0 "/></g></g><g clip-rule="nonzero" clip-path="url(#4b661107bc)"><g clip-rule="nonzero" clip-path="url(#92a34b3ffc)"><path style=" stroke:none;fill-rule:nonzero;fill:#ffffff;fill-opacity:1;" d="M 7.4375 7.4375 L 200.507812 7.4375 L 200.507812 200.507812 L 7.4375 200.507812 Z M 7.4375 7.4375 "/></g></g><g clip-rule="nonzero" clip-path="url(#ccc09e7d51)"><g clip-rule="nonzero" clip-path="url(#cf752a131f)"><path style=" stroke:none;fill-rule:nonzero;fill:#1b4965;fill-opacity:1;" d="M 67.613281 14.945312 L 101.625 14.945312 L 101.625 90.410156 L 67.613281 90.410156 Z M 67.613281 14.945312 "/></g></g><g clip-rule="nonzero" clip-path="url(#524ab4f086)"><g clip-rule="nonzero" clip-path="url(#077f3eaca2)"><path style=" stroke:none;fill-rule:nonzero;fill:#1b4965;fill-opacity:1;" d="M 106.320312 14.945312 L 140.332031 14.945312 L 140.332031 90.410156 L 106.320312 90.410156 Z M 106.320312 14.945312 "/></g></g><path style=" stroke:none;fill-rule:nonzero;fill:#1b4965;fill-opacity:1;" d="M 63.308594 163.5 C 62.960938 161.804688 61.976562 160.351562 60.535156 159.398438 C 59.472656 158.695312 58.242188 158.324219 56.972656 158.324219 C 54.789062 158.324219 52.773438 159.40625 51.570312 161.230469 L 48.609375 165.710938 C 46.640625 168.683594 47.464844 172.707031 50.445312 174.675781 C 51.503906 175.378906 52.734375 175.75 54.003906 175.75 C 56.1875 175.75 58.207031 174.664062 59.40625 172.84375 L 62.371094 168.359375 C 63.316406 166.917969 63.65625 165.195312 63.308594 163.5 Z M 63.308594 163.5 "/><path style=" stroke:none;fill-rule:nonzero;fill:#1b4965;fill-opacity:1;" d="M 78.050781 169.132812 C 77.703125 167.441406 76.71875 165.988281 75.28125 165.035156 C 74.214844 164.332031 72.988281 163.960938 71.71875 163.960938 C 69.535156 163.960938 67.515625 165.046875 66.316406 166.863281 L 61.019531 175.191406 C 60.0625 176.640625 59.726562 178.367188 60.074219 180.058594 C 60.421875 181.753906 61.40625 183.210938 62.847656 184.160156 C 63.910156 184.863281 65.140625 185.234375 66.40625 185.234375 C 68.589844 185.234375 70.613281 184.148438 71.8125 182.332031 L 77.109375 174.003906 C 78.0625 172.554688 78.398438 170.828125 78.050781 169.132812 Z M 78.050781 169.132812 "/><path style=" stroke:none;fill-rule:nonzero;fill:#1b4965;fill-opacity:1;" d="M 91.640625 176.773438 C 91.292969 175.078125 90.308594 173.621094 88.871094 172.667969 C 87.804688 171.96875 86.574219 171.597656 85.308594 171.597656 C 83.125 171.597656 81.105469 172.683594 79.90625 174.5 L 74.605469 182.828125 C 72.636719 185.808594 73.460938 189.828125 76.4375 191.796875 C 77.5 192.5 78.730469 192.867188 79.996094 192.867188 C 82.179688 192.867188 84.203125 191.785156 85.402344 189.96875 L 90.695312 181.640625 C 91.652344 180.191406 91.988281 178.464844 91.640625 176.773438 Z M 91.640625 176.773438 "/><path style=" stroke:none;fill-rule:nonzero;fill:#1b4965;fill-opacity:1;" d="M 103.746094 186.648438 C 103.398438 184.953125 102.414062 183.496094 100.972656 182.546875 C 99.910156 181.84375 98.675781 181.472656 97.414062 181.472656 C 95.230469 181.472656 93.210938 182.558594 92.007812 184.378906 L 88.953125 189.152344 C 86.984375 192.132812 87.808594 196.15625 90.785156 198.125 C 91.847656 198.824219 93.078125 199.199219 94.34375 199.199219 C 96.53125 199.199219 98.546875 198.109375 99.75 196.292969 L 102.800781 191.515625 C 103.757812 190.070312 104.09375 188.339844 103.746094 186.648438 Z M 103.746094 186.648438 "/><g clip-rule="nonzero" clip-path="url(#3c66223272)"><path style=" stroke:none;fill-rule:nonzero;fill:#1b4965;fill-opacity:1;" d="M 158.777344 159.164062 L 101.503906 120.09375 L 91.828125 122.261719 L 85.375 132.160156 C 83.898438 134.394531 81.421875 135.726562 78.746094 135.726562 C 77.195312 135.726562 75.683594 135.273438 74.382812 134.410156 C 72.613281 133.246094 71.410156 131.457031 70.984375 129.382812 C 70.558594 127.304688 70.96875 125.1875 72.136719 123.421875 L 79.445312 111.972656 C 81.535156 108.246094 84.085938 105.117188 87.03125 102.671875 L 67.1875 104.90625 L 25.71875 82 L 25.71875 143.84375 L 51.097656 158.617188 C 52.695312 157.09375 54.765625 156.257812 56.972656 156.257812 C 58.648438 156.257812 60.273438 156.746094 61.671875 157.671875 C 63.578125 158.929688 64.878906 160.851562 65.332031 163.085938 C 65.433594 163.578125 65.488281 164.078125 65.5 164.582031 C 67.101562 162.878906 69.34375 161.894531 71.71875 161.894531 C 73.390625 161.894531 75.019531 162.382812 76.417969 163.308594 C 78.324219 164.566406 79.625 166.488281 80.078125 168.722656 C 80.25 169.554688 80.292969 170.390625 80.214844 171.226562 C 81.675781 170.128906 83.449219 169.53125 85.308594 169.53125 C 86.980469 169.53125 88.609375 170.019531 90.007812 170.945312 C 91.910156 172.199219 93.207031 174.121094 93.664062 176.359375 C 93.9375 177.691406 93.890625 179.042969 93.53125 180.335938 C 96.1875 178.976562 99.566406 179.140625 102.109375 180.824219 C 104.015625 182.078125 105.316406 184 105.773438 186.234375 C 106.226562 188.46875 105.789062 190.742188 104.539062 192.632812 L 104.507812 192.683594 L 104.832031 192.890625 L 113.980469 199.191406 C 115.132812 200.066406 116.480469 200.523438 117.902344 200.523438 C 119.949219 200.523438 121.828125 199.589844 123.0625 197.964844 C 125.21875 195.121094 124.660156 191.054688 121.824219 188.902344 L 111.40625 181.722656 L 112.5 179.917969 L 127.339844 190.136719 C 128.488281 191.007812 129.839844 191.464844 131.261719 191.464844 C 133.304688 191.464844 135.1875 190.53125 136.417969 188.90625 C 138.578125 186.066406 138.019531 181.996094 135.179688 179.839844 L 119.238281 168.863281 L 120.429688 166.90625 L 138.664062 179.457031 C 139.8125 180.328125 141.164062 180.785156 142.585938 180.785156 C 144.628906 180.785156 146.507812 179.851562 147.742188 178.230469 C 149.898438 175.386719 149.34375 171.320312 146.503906 169.164062 L 127.164062 155.847656 L 128.363281 153.878906 L 150.765625 169.304688 C 151.914062 170.175781 153.265625 170.632812 154.6875 170.632812 C 154.6875 170.632812 154.6875 170.632812 154.691406 170.632812 C 156.734375 170.632812 158.613281 169.703125 159.84375 168.078125 C 161.953125 165.289062 161.488281 161.375 158.777344 159.164062 Z M 158.777344 159.164062 "/></g><g clip-rule="nonzero" clip-path="url(#179cca176e)"><path style=" stroke:none;fill-rule:nonzero;fill:#1b4965;fill-opacity:1;" d="M 73.011719 128.96875 C 73.324219 130.5 74.214844 131.820312 75.523438 132.683594 C 76.488281 133.320312 77.601562 133.65625 78.75 133.65625 C 80.726562 133.65625 82.554688 132.671875 83.648438 131.023438 L 90.558594 120.429688 L 101.925781 117.882812 L 102.300781 118.132812 L 159.972656 157.476562 L 182.148438 143.113281 L 182.148438 92.308594 L 148.867188 103.464844 L 148.617188 103.4375 L 109.628906 98.890625 C 109.375 98.832031 107.523438 98.40625 104.761719 98.40625 C 99.03125 98.40625 88.359375 100.304688 81.222656 113.035156 L 73.875 124.546875 C 73 125.863281 72.695312 127.433594 73.011719 128.96875 Z M 73.011719 128.96875 "/></g></g></svg>